<?xml version="1.0" encoding="utf-8"?>
<!-- Vinyl Record icon by Arthur Shlain from Usefulicons.com -->
<svg xmlns="http://www.w3.org/2000/svg" xmlns:xlink="http://www.w3.org/1999/xlink" xml:space="preserve" version="1.1" x="0px" y="0px" viewBox="0 0 100 100" width="400px" height="400px"><path d="M50,8.75C48.868,8.75,47.692,8.804,46.406,8.916C46.062,8.946,45.807,9.249,45.837,9.592C45.866,9.936,46.169,10.182,46.514,10.161C47.764,10.053,48.904,10,50,10C72.056,10,90,27.944,90,50C90,68.084,77.81,83.974,60.354,88.639C60.02,88.728,59.822,89.071,59.912,89.405C59.986,89.684,60.239,89.868,60.516,89.868C60.569,89.868,60.623,89.861,60.677,89.847C78.678,85.036,91.25,68.65,91.25,50C91.25,27.255,72.745,8.75,50,8.75Z" stroke="none"></path><path d="M53.486,89.839C52.236,89.947,51.096,90,50,90C27.944,90,10,72.056,10,50C10,31.916,22.19,16.026,39.646,11.361C39.98,11.272,40.178,10.929,40.088,10.595C39.999,10.262,39.659,10.063,39.323,10.153C21.322,14.964,8.75,31.35,8.75,50C8.75,72.745,27.255,91.25,50,91.25C51.132,91.25,52.308,91.196,53.594,91.084C53.938,91.054,54.193,90.751,54.163,90.408C54.133,90.064,53.82,89.807,53.486,89.839Z" stroke="none"></path><path d="M46.121,35.525C46.455,35.436,46.653,35.093,46.563,34.759C46.474,34.426,46.133,34.227,45.798,34.317C38.704,36.215,33.75,42.664,33.75,50C33.75,58.96,41.04,66.25,50,66.25C50.478,66.25,50.947,66.219,51.415,66.179C51.759,66.149,52.014,65.846,51.984,65.502C51.954,65.158,51.626,64.909,51.307,64.934C50.875,64.971,50.44,65,50,65C41.729,65,35,58.271,35,50C35,43.229,39.573,37.276,46.121,35.525Z" stroke="none"></path><path d="M53.879,64.474C53.545,64.563,53.347,64.906,53.437,65.24C53.511,65.519,53.764,65.703,54.041,65.703C54.094,65.703,54.148,65.696,54.202,65.682C61.296,63.785,66.25,57.336,66.25,50C66.25,41.04,58.96,33.75,50,33.75C49.522,33.75,49.053,33.781,48.585,33.821C48.241,33.851,47.986,34.154,48.016,34.498C48.046,34.842,48.371,35.089,48.693,35.066C49.125,35.029,49.56,35,50,35C58.271,35,65,41.729,65,50C65,56.771,60.427,62.724,53.879,64.474Z" stroke="none"></path><path d="M88.75,50C88.75,28.633,71.367,11.25,50,11.25C48.942,11.25,47.838,11.301,46.624,11.405C46.28,11.434,46.025,11.737,46.055,12.081C46.085,12.425,46.392,12.678,46.732,12.65C47.91,12.549,48.979,12.5,50.001,12.5C70.679,12.5,87.501,29.322,87.501,50C87.501,66.954,76.072,81.85,59.708,86.224C59.374,86.313,59.176,86.656,59.266,86.99C59.34,87.269,59.593,87.453,59.87,87.453C59.923,87.453,59.977,87.446,60.031,87.432C76.939,82.912,88.75,67.519,88.75,50Z" stroke="none"></path><path d="M11.25,50C11.25,71.367,28.633,88.75,50,88.75C51.058,88.75,52.162,88.699,53.376,88.595C53.72,88.566,53.975,88.263,53.945,87.919C53.915,87.574,53.606,87.319,53.268,87.35C52.091,87.451,51.021,87.5,50,87.5C29.322,87.5,12.5,70.678,12.5,50C12.5,33.046,23.929,18.15,40.293,13.776C40.627,13.687,40.825,13.344,40.735,13.01C40.647,12.677,40.304,12.48,39.97,12.568C23.061,17.088,11.25,32.481,11.25,50Z" stroke="none"></path><path d="M13.75,50C13.75,69.988,30.012,86.25,50,86.25C50.991,86.25,52.024,86.203,53.158,86.104C53.502,86.074,53.757,85.771,53.727,85.428C53.697,85.083,53.391,84.83,53.05,84.859C51.953,84.954,50.955,85,50,85C30.701,85,15,69.299,15,50C15,34.176,25.667,20.273,40.94,16.191C41.274,16.102,41.472,15.759,41.382,15.425C41.293,15.092,40.953,14.893,40.617,14.983C24.799,19.211,13.75,33.611,13.75,50Z" stroke="none"></path><path d="M86.25,50C86.25,30.012,69.988,13.75,50,13.75C49.009,13.75,47.976,13.797,46.842,13.896C46.498,13.926,46.243,14.229,46.273,14.572C46.302,14.917,46.606,15.167,46.95,15.141C48.047,15.046,49.045,15,50,15C69.299,15,85,30.701,85,50C85,65.824,74.333,79.727,59.06,83.809C58.726,83.898,58.528,84.241,58.618,84.575C58.692,84.854,58.945,85.038,59.222,85.038C59.275,85.038,59.329,85.031,59.383,85.017C75.201,80.789,86.25,66.389,86.25,50Z" stroke="none"></path><path d="M83.75,50C83.75,31.39,68.609,16.25,50,16.25C49.077,16.25,48.115,16.294,47.06,16.385C46.716,16.414,46.461,16.718,46.491,17.061C46.521,17.406,46.83,17.654,47.168,17.63C48.188,17.542,49.114,17.5,50.001,17.5C67.922,17.5,82.501,32.08,82.501,50C82.501,64.693,72.596,77.604,58.414,81.394C58.08,81.483,57.882,81.826,57.972,82.16C58.046,82.439,58.299,82.623,58.576,82.623C58.629,82.623,58.683,82.616,58.737,82.602C73.464,78.665,83.75,65.259,83.75,50Z" stroke="none"></path><path d="M16.25,50C16.25,68.61,31.391,83.75,50,83.75C50.923,83.75,51.885,83.706,52.94,83.615C53.284,83.586,53.539,83.282,53.509,82.939C53.479,82.594,53.168,82.343,52.832,82.37C51.812,82.458,50.886,82.5,49.999,82.5C32.078,82.5,17.499,67.92,17.499,50C17.499,35.307,27.404,22.396,41.586,18.606C41.92,18.517,42.118,18.174,42.028,17.84C41.939,17.507,41.598,17.31,41.263,17.398C26.536,21.335,16.25,34.741,16.25,50Z" stroke="none"></path><path d="M81.25,50C81.25,32.769,67.231,18.75,50,18.75C49.144,18.75,48.253,18.791,47.277,18.875C46.933,18.905,46.678,19.208,46.708,19.551C46.738,19.895,47.043,20.142,47.385,20.12C48.324,20.04,49.18,20,50,20C66.542,20,80,33.458,80,50C80,63.563,70.856,75.48,57.766,78.979C57.432,79.068,57.234,79.411,57.324,79.744C57.398,80.024,57.651,80.208,57.928,80.208C57.981,80.208,58.035,80.201,58.089,80.187C71.726,76.542,81.25,64.129,81.25,50Z" stroke="none"></path><path d="M18.75,50C18.75,67.231,32.769,81.25,50,81.25C50.856,81.25,51.747,81.209,52.723,81.125C53.067,81.095,53.322,80.792,53.292,80.449C53.262,80.104,52.955,79.856,52.615,79.88C51.676,79.96,50.82,80,50,80C33.458,80,20,66.542,20,50C20,36.437,29.144,24.52,42.234,21.021C42.568,20.932,42.766,20.589,42.676,20.256C42.587,19.923,42.245,19.723,41.911,19.813C28.274,23.458,18.75,35.871,18.75,50Z" stroke="none"></path><path d="M21.25,50C21.25,65.853,34.147,78.75,50,78.75C50.789,78.75,51.608,78.712,52.505,78.635C52.849,78.605,53.104,78.302,53.074,77.959C53.044,77.615,52.732,77.358,52.397,77.39C51.536,77.464,50.752,77.5,50,77.5C34.837,77.5,22.5,65.164,22.5,50C22.5,37.567,30.882,26.643,42.882,23.436C43.216,23.347,43.414,23.004,43.324,22.67C43.235,22.337,42.894,22.14,42.559,22.228C30.013,25.581,21.25,37.001,21.25,50Z" stroke="none"></path><path d="M78.75,50C78.75,34.147,65.853,21.25,50,21.25C49.211,21.25,48.392,21.288,47.495,21.365C47.151,21.395,46.896,21.698,46.926,22.041C46.956,22.385,47.266,22.639,47.603,22.61C48.464,22.536,49.249,22.5,50,22.5C65.163,22.5,77.5,34.836,77.5,50C77.5,62.433,69.118,73.357,57.118,76.564C56.784,76.653,56.586,76.996,56.676,77.33C56.75,77.609,57.003,77.793,57.28,77.793C57.333,77.793,57.387,77.786,57.441,77.772C69.987,74.419,78.75,62.999,78.75,50Z" stroke="none"></path><path d="M76.25,50C76.25,35.526,64.475,23.75,50,23.75C49.277,23.75,48.529,23.785,47.714,23.855C47.369,23.885,47.115,24.188,47.145,24.532C47.175,24.876,47.498,25.128,47.822,25.1C48.602,25.033,49.314,25,50,25C63.785,25,75,36.215,75,50C75,61.303,67.381,71.233,56.472,74.149C56.138,74.238,55.94,74.581,56.03,74.915C56.104,75.194,56.357,75.378,56.634,75.378C56.687,75.378,56.741,75.371,56.795,75.357C68.249,72.295,76.25,61.868,76.25,50Z" stroke="none"></path><path d="M23.75,50C23.75,64.474,35.525,76.25,50,76.25C50.723,76.25,51.471,76.215,52.286,76.145C52.631,76.115,52.885,75.812,52.855,75.468C52.825,75.124,52.5,74.87,52.178,74.9C51.398,74.967,50.686,75,50,75C36.215,75,25,63.785,25,50C25,38.697,32.619,28.767,43.528,25.851C43.862,25.762,44.06,25.419,43.97,25.085C43.881,24.752,43.54,24.553,43.205,24.643C31.751,27.705,23.75,38.132,23.75,50Z" stroke="none"></path><path d="M26.25,50C26.25,63.096,36.904,73.75,50,73.75C50.654,73.75,51.331,73.719,52.068,73.655C52.412,73.625,52.667,73.322,52.637,72.978C52.607,72.634,52.277,72.382,51.96,72.41C51.259,72.47,50.618,72.5,50,72.5C37.594,72.5,27.5,62.407,27.5,50C27.5,39.828,34.357,30.89,44.176,28.266C44.51,28.177,44.708,27.834,44.618,27.5C44.53,27.167,44.187,26.97,43.853,27.058C33.488,29.829,26.25,39.263,26.25,50Z" stroke="none"></path><path d="M73.75,50C73.75,36.904,63.096,26.25,50,26.25C49.346,26.25,48.669,26.281,47.932,26.345C47.588,26.375,47.333,26.678,47.363,27.022S47.721,27.616,48.04,27.59C48.741,27.53,49.382,27.5,50,27.5C62.406,27.5,72.5,37.593,72.5,50C72.5,60.172,65.643,69.11,55.824,71.734C55.49,71.823,55.292,72.166,55.382,72.5C55.456,72.779,55.709,72.963,55.986,72.963C56.039,72.963,56.093,72.956,56.147,72.942C66.512,70.171,73.75,60.737,73.75,50Z" stroke="none"></path><path d="M28.75,50C28.75,61.717,38.282,71.25,50,71.25C50.685,71.25,51.349,71.2,51.851,71.157C52.195,71.127,52.45,70.824,52.42,70.481C52.39,70.136,52.081,69.885,51.743,69.912C51.266,69.953,50.637,70,50,70C38.972,70,30,61.028,30,50C30,40.972,36.098,33.035,44.828,30.701C45.162,30.612,45.36,30.269,45.27,29.935C45.182,29.602,44.838,29.404,44.505,29.493C35.229,31.974,28.75,40.406,28.75,50Z" stroke="none"></path><path d="M71.25,50C71.25,38.283,61.718,28.75,50,28.75C49.315,28.75,48.651,28.8,48.149,28.843C47.805,28.873,47.55,29.176,47.58,29.519C47.61,29.864,47.917,30.112,48.257,30.088C48.734,30.047,49.363,30,50,30C61.028,30,70,38.972,70,50C70,59.028,63.902,66.965,55.172,69.299C54.838,69.388,54.64,69.731,54.73,70.065C54.804,70.344,55.057,70.528,55.334,70.528C55.387,70.528,55.441,70.521,55.495,70.507C64.771,68.026,71.25,59.594,71.25,50Z" stroke="none"></path><path d="M68.75,50C68.75,39.661,60.339,31.25,50,31.25C49.396,31.25,48.81,31.294,48.367,31.332C48.023,31.361,47.768,31.665,47.798,32.008C47.827,32.352,48.131,32.609,48.475,32.577C48.893,32.542,49.443,32.5,50,32.5C59.649,32.5,67.5,40.351,67.5,50C67.5,57.9,62.164,64.844,54.525,66.887C54.191,66.976,53.993,67.319,54.083,67.653C54.157,67.932,54.41,68.116,54.687,68.116C54.74,68.116,54.794,68.109,54.848,68.095C63.033,65.906,68.75,58.465,68.75,50Z" stroke="none"></path><path d="M31.25,50C31.25,60.339,39.661,68.75,50,68.75C50.604,68.75,51.19,68.706,51.633,68.668C51.977,68.639,52.232,68.335,52.202,67.992C52.172,67.647,51.858,67.388,51.525,67.423C51.107,67.458,50.557,67.5,50,67.5C40.351,67.5,32.5,59.649,32.5,50C32.5,42.1,37.836,35.156,45.475,33.113C45.809,33.024,46.007,32.681,45.917,32.347C45.828,32.014,45.488,31.814,45.152,31.905C36.967,34.094,31.25,41.535,31.25,50Z" stroke="none"></path><path d="M50,52.5C51.379,52.5,52.5,51.378,52.5,50S51.379,47.5,50,47.5S47.5,48.622,47.5,50S48.621,52.5,50,52.5ZM50,48.75C50.689,48.75,51.25,49.311,51.25,50S50.689,51.25,50,51.25S48.75,50.689,48.75,50S49.311,48.75,50,48.75Z" stroke="none"></path><path d="M50,5C25.187,5,5,25.187,5,50S25.187,95,50,95S95,74.813,95,50S74.813,5,50,5ZM50,92.5C26.565,92.5,7.5,73.435,7.5,50S26.565,7.5,50,7.5S92.5,26.565,92.5,50S73.435,92.5,50,92.5Z" stroke="none"></path></svg>